<?xml version="1.0" encoding="UTF-8"?>
<svg id="Calque_3" xmlns="http://www.w3.org/2000/svg" viewBox="0 0 500 500">
  <defs>
    <style>
      .cls-1 {
        fill: #789893;
      }

      .cls-2 {
        fill: #384001;
      }

      .cls-3 {
        fill: #8a8c45;
      }

      .cls-4 {
        fill: #a3a646;
      }

      .cls-5 {
        fill: #9cc2bb;
      }
    </style>
  </defs>
  <path class="cls-3" d="M196.02,235.81c11.78,6.21,23.98,11.95,36.33,17.31-1.53-.24-13-2.19-27.17-6.91-.35-.48-.69-.94-1.05-1.41-.15-.19-.29-.38-.44-.57-1.28-1.66-2.64-3.24-4.04-4.75-.38-.42-.77-.83-1.16-1.23-.4-.42-.81-.83-1.23-1.24-.4-.4-.81-.8-1.23-1.19Z"/>
  <path class="cls-3" d="M168.76,215.95c14.95,4.2,38.87,13.93,63.81,36.24-12.79-5.45-25.39-11.33-37.8-17.54h0s0-.01,0-.01c-.09-.1-.2-.19-.3-.27-.31-.29-.61-.55-.92-.83-.67-.6-1.34-1.19-2.03-1.75-.41-.35-.83-.69-1.24-1.03-.52-.42-1.03-.83-1.55-1.24-.53-.42-1.05-.82-1.58-1.22-.53-.41-1.06-.8-1.59-1.19-.54-.4-1.07-.79-1.61-1.18-.54-.39-1.08-.77-1.64-1.15-1.09-.76-2.2-1.52-3.31-2.26-1.11-.76-2.24-1.49-3.37-2.22s-2.26-1.45-3.41-2.18-2.29-1.45-3.44-2.17Z"/>
  <path class="cls-1" d="M171.8,230.43c1.11.76,2.25,1.48,3.4,2.18-1.15-.7-2.28-1.43-3.4-2.18Z"/>
  <path class="cls-3" d="M194.62,193.17s35.02,16.75,59.69,66.68c-5.72-5.59-11.28-11.35-16.61-17.31-6.05-7.05-12.07-14.02-17.51-21.57l-.14.08c3.91,8.53,10.14,15.74,16.66,22.4,5.61,5.87,11.47,11.47,17.55,16.84l-.74-.34s-12.02-7.05-25.32-18.66h0c-7.64-17.68-17.66-35.15-33.03-46.05-.2-.69-.37-1.38-.54-2.07Z"/>
  <path class="cls-1" d="M242.11,230.41c1.21,1.66,2.48,3.29,3.79,4.88-1.31-1.59-2.58-3.21-3.79-4.88Z"/>
  <path class="cls-1" d="M267.98,256.91c.48.39.95.76,1.41,1.14,0,0,0,0,0,0-.46-.37-.93-.76-1.42-1.14Z"/>
  <path class="cls-3" d="M229.47,204.64s35.05,16.77,59.74,66.77c-2.85-2.94-5.64-5.95-8.33-9.03-3.02-3.68-7.39-8.8-10.61-12.4l-.14.08c2.14,5.14,5.84,9.39,9.77,13.24,2.78,2.85,5.68,5.58,8.68,8.21l-.21-.09s-8.43-4.96-18.96-13.37c-8.55-20.5-21.03-39.49-39.71-52.52-.08-.3-.15-.6-.23-.9Z"/>
  <path class="cls-1" d="M286.59,255.07c1.01,1.27,2.04,2.5,3.06,3.68-1.03-1.18-2.05-2.41-3.06-3.68Z"/>
  <path class="cls-3" d="M271.49,223.52s24.02,15.05,37.82,53.32c-2.21-3.09-4.41-6.2-6.58-9.32-2.62-4.04-5.4-7.85-8.54-11.54l-.15.07c1.57,4.65,4.53,8.55,7.61,12.28,2.36,2.96,4.77,5.88,7.26,8.73l-.14-.08s-8.61-6.48-17.58-16.48c-4.86-12.09-11.02-23.91-19.22-33.98-.2-1-.36-2-.48-3.01Z"/>
  <path class="cls-3" d="M305.05,286.89c3.01-.95,5.94-2.06,8.88-3.13-9.86,10.44-25.94,15.66-38.43,18.26,4.96-3.88,8.87-8.97,12.77-14.26,10.6-3.65,18.93-4.66,23.27-4.93-2.39.78-4.7,1.79-7,2.81-5.11,2.21-10.14,4.6-15.1,7.13l.07.15c5.14-2.09,10.32-4.11,15.52-6.03Z"/>
  <path class="cls-3" d="M250.48,280.06l.02.17c5.84-.35,17.62-1.12,23.45-1.55,5.87-.34,11.74-.74,17.55-1.7.37-.06.75-.11,1.12-.18-19.08,11.89-46.16,12.14-65.28,10.32,12-2.96,23.52-7.22,33.68-14.6,14.79-.03,25.2,2.14,29.65,3.29-5.64.21-11.24.79-16.84,1.51-5.83.64-17.53,2.01-23.36,2.72Z"/>
  <path class="cls-1" d="M222.41,260.03c.06,0,.13-.01.19-.02-.06,0-.13.01-.19.02Z"/>
  <path class="cls-3" d="M248,261.82c-12.36,8.53-29.88,10.43-43.37,10.36,5.21-1.64,10.24-3.5,14.6-6.45h0s12.59-1.61,12.59-1.61c5.43-.52,10.8-1.39,16.16-2.3Z"/>
  <path class="cls-3" d="M247.39,260.72h-.06c-5.3.2-10.51,1.11-15.69,2.06-2.75.47-6.95,1.23-11.07,1.99,1.87-1.41,3.6-3.06,5.14-5.02,10.81-.74,18.47.35,21.68.96Z"/>
  <path class="cls-1" d="M219.11,260.41c1.13-.14,2.23-.27,3.3-.37-1.08.11-2.18.23-3.3.37Z"/>
  <path class="cls-4" d="M153.14,212.82s.47.03,1.35.14c.13.02.27.03.41.05.29.03.61.08.95.14.11.02.22.03.33.05.07,0,.15.02.23.03.28.04.59.09.9.14.55.09,1.14.19,1.79.31.35.07.7.13,1.08.21,1.12.21,2.37.49,3.73.8.46.11.92.23,1.4.34.27.07.54.14.82.21.84.22,1.72.45,2.63.71h0c1.15.72,2.29,1.44,3.44,2.17s2.28,1.45,3.41,2.18,2.25,1.46,3.37,2.22c1.11.75,2.22,1.5,3.31,2.26.55.38,1.09.76,1.64,1.15.54.39,1.07.78,1.61,1.18.53.39,1.06.78,1.59,1.19.53.4,1.05.8,1.58,1.22.52.41,1.03.82,1.55,1.24.41.34.83.68,1.24,1.03.68.56,1.36,1.15,2.03,1.75.31.28.61.54.92.83.1.08.2.17.3.27-4.05-2.01-8.06-4.06-12.06-6.15,4.37,2.51,8.82,4.95,13.33,7.32.42.39.83.79,1.23,1.19.42.41.83.82,1.23,1.24.39.4.78.81,1.16,1.23,1.41,1.51,2.76,3.09,4.04,4.75.15.19.29.38.44.57.36.47.71.94,1.05,1.41-1.33-.45-2.69-.91-4.06-1.41-.53-.2-1.07-.38-1.61-.59-.54-.2-1.08-.4-1.62-.61s-1.09-.41-1.63-.63c-.55-.22-1.1-.43-1.65-.66-2.93-1.19-5.89-2.49-8.83-3.93-.6-.29-1.18-.58-1.78-.88-1.27-.63-2.53-1.29-3.79-1.99-1.1-.6-2.19-1.22-3.28-1.86-.58-.34-1.16-.69-1.73-1.05-1.15-.7-2.28-1.43-3.4-2.18-.5-.33-1-.68-1.49-1.02-.55-.38-1.09-.77-1.63-1.17-.5-.36-1-.74-1.49-1.11-.36-.28-.71-.56-1.07-.83-.62-.48-1.22-.98-1.82-1.49-.38-.31-.74-.63-1.11-.95-.29-.24-.57-.5-.84-.75-.04-.02-.07-.05-.1-.08-.46-.41-.9-.82-1.34-1.25-.05-.04-.09-.08-.13-.13-.33-.31-.64-.61-.95-.93-.27-.26-.54-.54-.81-.82-.36-.37-.71-.75-1.06-1.12-.31-.33-.61-.66-.9-1-1.4-1.59-2.72-3.24-3.92-4.96Z"/>
  <path class="cls-4" d="M195.16,195.24c15.38,10.9,25.4,28.37,33.03,46.05-.26-.22-.52-.45-.78-.68-.85-.75-1.71-1.53-2.56-2.31-.43-.39-.86-.79-1.28-1.19-.86-.79-1.71-1.62-2.57-2.47-.43-.41-.86-.84-1.28-1.26-.43-.43-.85-.86-1.28-1.29-.42-.44-.85-.88-1.27-1.32-.42-.44-.84-.89-1.26-1.34-.83-.89-1.65-1.81-2.47-2.75-.41-.46-.82-.93-1.21-1.41-1.21-1.42-2.39-2.87-3.52-4.36-.38-.49-.75-.99-1.13-1.49-.82-1.1-1.6-2.21-2.37-3.35-.64-.92-1.25-1.86-1.85-2.81-2.28-3.63-4.27-7.39-5.87-11.27-.23-.55-.46-1.1-.66-1.66-.16-.42-.32-.84-.46-1.25-.27-.7-.5-1.43-.73-2.14-.17-.56-.35-1.12-.5-1.68Z"/>
  <path class="cls-5" d="M227.42,240.61c.26.23.52.46.78.68h0c-.26-.21-.52-.45-.78-.68Z"/>
  <path class="cls-4" d="M229.69,205.54c18.68,13.03,31.16,32.02,39.71,52.52-.46-.37-.93-.76-1.42-1.14-4.75-3.86-9.85-8.39-14.77-13.46-.98-1.02-1.96-2.05-2.93-3.11-.47-.53-.96-1.07-1.43-1.6s-.94-1.07-1.4-1.61c-.52-.61-1.04-1.22-1.55-1.85-.49-.58-.97-1.18-1.43-1.78-.05-.06-.09-.11-.13-.18-.24-.28-.45-.57-.68-.86l-.31-.41c-.1-.14-.21-.27-.31-.42-.32-.41-.62-.82-.92-1.24-.07-.08-.12-.16-.18-.23-.38-.54-.78-1.09-1.16-1.64-.41-.58-.81-1.17-1.21-1.77-1.21-1.82-2.36-3.68-3.42-5.56-.35-.62-.69-1.25-1.02-1.88-.33-.63-.66-1.26-.97-1.91-.26-.51-.5-1.03-.74-1.54-.12-.25-.24-.5-.34-.76-.87-1.98-1.66-3.98-2.32-6-.18-.51-.34-1.03-.5-1.55,0,0,0-.02,0-.03-.18-.63-.36-1.26-.52-1.9-.02-.04-.03-.07-.03-.11Z"/>
  <path class="cls-4" d="M271.97,226.52c8.2,10.07,14.36,21.89,19.22,33.98-.48-.54-.97-1.09-1.46-1.65-.02-.03-.05-.06-.08-.09-1.02-1.18-2.05-2.41-3.06-3.68-1.01-1.27-2.01-2.58-2.97-3.92-.49-.67-.96-1.36-1.44-2.04-.44-.64-.87-1.28-1.29-1.94-.1-.16-.2-.3-.29-.45-.38-.59-.74-1.19-1.11-1.79-.95-1.59-1.87-3.21-2.7-4.87-.21-.41-.41-.82-.6-1.23-.14-.28-.26-.55-.39-.83-.15-.31-.28-.61-.42-.92-.85-1.9-1.58-3.84-2.2-5.8-.13-.42-.25-.84-.37-1.26-.1-.37-.2-.74-.3-1.11-.09-.35-.19-.72-.26-1.07-.02-.05-.03-.1-.04-.16-.09-.38-.17-.77-.24-1.15Z"/>
  <path class="cls-4" d="M288.28,287.75c-3.9,5.3-7.82,10.38-12.77,14.26-.83.17-1.65.33-2.45.48-.59.11-1.17.22-1.74.32-1.77.31-3.42.56-4.92.77-.28.04-.56.07-.84.11-.82.12-1.59.21-2.31.29-.24.03-.47.06-.69.08-.17.02-.33.04-.49.06-.27.03-.53.05-.78.08-.28.03-.54.05-.78.07-.29.03-.56.05-.82.07-.48.04-.88.07-1.21.09-.16.01-.31.02-.43.03-.36.02-.55.03-.55.03l-.82-.04c.82-.6,1.64-1.18,2.45-1.74.61-.43,1.22-.84,1.83-1.25,1.5-1.01,3-1.97,4.48-2.87.57-.35,1.12-.69,1.69-1.02.35-.21.71-.42,1.06-.61.45-.27.91-.53,1.36-.77.46-.27.93-.53,1.38-.76.41-.23.82-.45,1.23-.66.09-.06.19-.1.28-.15.41-.22.81-.42,1.22-.63.45-.24.9-.47,1.34-.68.44-.22.88-.44,1.33-.65.44-.22.88-.42,1.31-.63,1.31-.61,2.61-1.17,3.88-1.7.79-.33,1.57-.65,2.35-.96,1.51-.6,2.99-1.14,4.41-1.63Z"/>
  <path class="cls-4" d="M261.02,272.53c-10.16,7.37-21.68,11.64-33.68,14.6-.3-.02-.59-.06-.88-.08-.54-.06-1.08-.11-1.6-.17-.36-.04-.71-.07-1.07-.11-.84-.1-1.66-.2-2.46-.3-.38-.05-.76-.1-1.12-.14-1.84-.24-3.56-.49-5.14-.74-.32-.06-.63-.1-.93-.16-.49-.07-.95-.16-1.41-.23-.26-.04-.52-.09-.75-.14-.18-.03-.35-.06-.52-.09-.23-.04-.45-.08-.66-.12-.51-.09-.99-.18-1.45-.27-1.68-.32-2.97-.6-3.83-.78-.15-.03-.28-.06-.39-.09-.12-.03-.22-.05-.31-.07-.32-.08-.49-.11-.49-.11l-1.13-.41c.71-.26,1.42-.51,2.12-.75.71-.25,1.42-.49,2.11-.72.62-.21,1.24-.41,1.85-.61.14-.05.29-.1.43-.14.63-.2,1.26-.4,1.89-.59.95-.3,1.88-.58,2.81-.84.43-.13.85-.25,1.27-.37,1.35-.38,2.69-.75,4.02-1.1,1.46-.39,2.91-.74,4.35-1.07.51-.13,1.01-.24,1.52-.35,6.47-1.46,12.58-2.44,18.3-3.08.98-.1,1.94-.21,2.9-.3,2.33-.22,4.6-.38,6.79-.49.99-.05,1.98-.08,2.94-.12.54-.02,1.08-.04,1.61-.04.46-.02.91-.03,1.36-.02.52-.01,1.03,0,1.54-.01Z"/>
  <path class="cls-4" d="M225.72,259.76c-1.54,1.96-3.27,3.6-5.14,5.02-3.66.68-7.24,1.37-9.67,1.85l.03.17,8.3-1.07c-4.36,2.94-9.4,4.81-14.6,6.45h0c-.55,0-1.1,0-1.64-.02-.32,0-.64-.01-.96-.02-.32,0-.64-.01-.96-.03-9.63-.29-16.46-1.45-16.46-1.45l-.85-.24c.51-.23,1.02-.44,1.52-.66.51-.23,1.01-.43,1.52-.64,1.63-.68,3.24-1.3,4.83-1.89.38-.14.74-.27,1.11-.41,2.44-.88,4.82-1.66,7.14-2.34.47-.14.93-.27,1.39-.4.46-.13.91-.26,1.37-.38.91-.25,1.82-.48,2.71-.7.45-.12.89-.22,1.33-.33,1.83-.43,3.62-.81,5.36-1.14.74-.14,1.45-.27,2.17-.39.07-.02.13-.02.2-.04.79-.13,1.57-.25,2.34-.37.8-.12,1.57-.22,2.35-.33.97-.12,1.92-.24,2.85-.33.21-.02.42-.04.62-.06.54-.05,1.08-.1,1.6-.14.19-.02.38-.03.57-.04.33-.03.64-.05.96-.07Z"/>
  <path class="cls-2" d="M256.15,261.63c11.23,4.19,22.6,8,34.09,11.34-.56-.47-1.11-.95-1.66-1.45h0c-3-2.63-5.9-5.36-8.68-8.21-3.93-3.86-7.62-8.1-9.77-13.24l.14-.08c3.22,3.6,7.58,8.72,10.61,12.4,2.69,3.07,5.48,6.08,8.33,9.03.58.59,1.15,1.18,1.74,1.76,6.27,1.83,12.58,3.5,18.93,5-.34-.37-.65-.72-.96-1.1h0c-2.49-2.87-4.9-5.79-7.26-8.74-3.08-3.72-6.05-7.62-7.61-12.28l.15-.07c3.13,3.69,5.92,7.5,8.54,11.54,2.17,3.12,4.37,6.23,6.58,9.32h0c.35.49.68.96,1.03,1.44,7.65,1.83,15.35,3.42,23.12,4.76.11,0,2.71.37,2.71.37,3.59.59,7.21.95,10.83,1.36v.17c-4.52-.22-9.14-.54-13.64-1.04-4.63-.55-9.22-1.25-13.79-2.08-1.89.59-3.75,1.25-5.6,1.93h-.01c-2.95,1.08-5.87,2.19-8.88,3.14-5.2,1.92-10.38,3.94-15.52,6.03l-.07-.15c4.96-2.53,9.98-4.92,15.1-7.13,2.29-1.02,4.6-2.03,7-2.81h0c1.6-.53,3.22-.96,4.89-1.24.31-.06.64-.12.96-.16-7.31-1.4-14.56-3.13-21.74-5.13-1.01.19-2.02.36-3.03.52h0c-.37.06-.75.11-1.12.18-5.81.96-11.68,1.35-17.55,1.7-5.84.43-17.61,1.2-23.45,1.55l-.02-.17c5.83-.72,17.53-2.09,23.36-2.72,5.6-.72,11.21-1.31,16.84-1.51h0c1.03-.04,2.06-.06,3.09-.07-10.74-3.04-21.34-6.65-31.76-10.58-3.42-1.31-6.85-2.65-10.28-4.01-1.24.22-2.48.43-3.73.65h0c-5.36.92-10.73,1.79-16.16,2.3l-12.59,1.61h0s-8.3,1.07-8.3,1.07l-.03-.17c2.44-.48,6.01-1.17,9.67-1.85,4.12-.76,8.32-1.53,11.07-1.99,5.18-.96,10.39-1.87,15.69-2.07h.06s0,0,.02,0h0c1.02-.04,2.05-.08,3.07-.05-6.07-2.42-12.12-4.94-18.14-7.54-12.35-5.36-24.55-11.1-36.33-17.31-4.51-2.37-8.96-4.81-13.33-7.32,4,2.09,8.02,4.14,12.06,6.15h0s0,.01,0,.01c12.41,6.21,25.01,12.09,37.8,17.54,7.58,3.23,15.23,6.31,22.95,9.2-.42-.35-.83-.71-1.25-1.09h0c-6.08-5.37-11.94-10.98-17.55-16.85-6.51-6.66-12.75-13.87-16.66-22.4l.14-.08c5.44,7.55,11.46,14.52,17.51,21.57,5.33,5.96,10.88,11.72,16.61,17.31.61.6,1.22,1.19,1.84,1.78Z"/>
</svg>