<?xml version="1.0" encoding="UTF-8"?>
<svg id="Logo" xmlns="http://www.w3.org/2000/svg" xmlns:xlink="http://www.w3.org/1999/xlink" viewBox="0 0 305 206">
  <defs>
    <style>
      .cls-1 {
        fill: url(#Dégradé_sans_nom_6);
      }

      .cls-2 {
        fill: url(#Dégradé_sans_nom_6-5);
      }

      .cls-3 {
        fill: url(#Dégradé_sans_nom_6-7);
      }

      .cls-4 {
        fill: url(#Dégradé_sans_nom_6-6);
      }

      .cls-5 {
        fill: url(#Dégradé_sans_nom_6-9);
      }

      .cls-6 {
        fill: url(#Dégradé_sans_nom_6-8);
      }

      .cls-7 {
        fill: url(#Dégradé_sans_nom_6-3);
      }

      .cls-8 {
        fill: url(#Dégradé_sans_nom_6-2);
      }

      .cls-9 {
        fill: url(#Dégradé_sans_nom_6-4);
      }

      .cls-10, .cls-11 {
        fill: #3a4022;
      }

      .cls-11 {
        font-family: Nunito-Medium, Nunito;
        font-size: 18px;
        font-variation-settings: 'wght' 500;
        font-weight: 500;
        letter-spacing: 0em;
      }

      .cls-12 {
        fill: url(#Dégradé_sans_nom_6-61);
      }

      .cls-13 {
        fill: url(#Dégradé_sans_nom_6-67);
      }

      .cls-14 {
        fill: url(#Dégradé_sans_nom_6-63);
      }

      .cls-15 {
        fill: url(#Dégradé_sans_nom_6-66);
      }

      .cls-16 {
        fill: url(#Dégradé_sans_nom_6-64);
      }

      .cls-17 {
        fill: url(#Dégradé_sans_nom_6-62);
      }

      .cls-18 {
        fill: url(#Dégradé_sans_nom_6-65);
      }

      .cls-19 {
        fill: url(#Dégradé_sans_nom_6-60);
      }

      .cls-20 {
        fill: url(#Dégradé_sans_nom_6-39);
      }

      .cls-21 {
        fill: url(#Dégradé_sans_nom_6-36);
      }

      .cls-22 {
        fill: url(#Dégradé_sans_nom_6-37);
      }

      .cls-23 {
        fill: url(#Dégradé_sans_nom_6-38);
      }

      .cls-24 {
        fill: url(#Dégradé_sans_nom_6-45);
      }

      .cls-25 {
        fill: url(#Dégradé_sans_nom_6-42);
      }

      .cls-26 {
        fill: url(#Dégradé_sans_nom_6-48);
      }

      .cls-27 {
        fill: url(#Dégradé_sans_nom_6-46);
      }

      .cls-28 {
        fill: url(#Dégradé_sans_nom_6-40);
      }

      .cls-29 {
        fill: url(#Dégradé_sans_nom_6-41);
      }

      .cls-30 {
        fill: url(#Dégradé_sans_nom_6-47);
      }

      .cls-31 {
        fill: url(#Dégradé_sans_nom_6-44);
      }

      .cls-32 {
        fill: url(#Dégradé_sans_nom_6-49);
      }

      .cls-33 {
        fill: url(#Dégradé_sans_nom_6-43);
      }

      .cls-34 {
        fill: url(#Dégradé_sans_nom_6-34);
      }

      .cls-35 {
        fill: url(#Dégradé_sans_nom_6-35);
      }

      .cls-36 {
        fill: url(#Dégradé_sans_nom_6-32);
      }

      .cls-37 {
        fill: url(#Dégradé_sans_nom_6-33);
      }

      .cls-38 {
        fill: url(#Dégradé_sans_nom_6-30);
      }

      .cls-39 {
        fill: url(#Dégradé_sans_nom_6-31);
      }

      .cls-40 {
        fill: url(#Dégradé_sans_nom_6-54);
      }

      .cls-41 {
        fill: url(#Dégradé_sans_nom_6-27);
      }

      .cls-42 {
        fill: url(#Dégradé_sans_nom_6-24);
      }

      .cls-43 {
        fill: url(#Dégradé_sans_nom_6-25);
      }

      .cls-44 {
        fill: url(#Dégradé_sans_nom_6-58);
      }

      .cls-45 {
        fill: url(#Dégradé_sans_nom_6-28);
      }

      .cls-46 {
        fill: url(#Dégradé_sans_nom_6-29);
      }

      .cls-47 {
        fill: url(#Dégradé_sans_nom_6-50);
      }

      .cls-48 {
        fill: url(#Dégradé_sans_nom_6-53);
      }

      .cls-49 {
        fill: url(#Dégradé_sans_nom_6-51);
      }

      .cls-50 {
        fill: url(#Dégradé_sans_nom_6-56);
      }

      .cls-51 {
        fill: url(#Dégradé_sans_nom_6-59);
      }

      .cls-52 {
        fill: url(#Dégradé_sans_nom_6-52);
      }

      .cls-53 {
        fill: url(#Dégradé_sans_nom_6-57);
      }

      .cls-54 {
        fill: url(#Dégradé_sans_nom_6-55);
      }

      .cls-55 {
        fill: url(#Dégradé_sans_nom_6-23);
      }

      .cls-56 {
        fill: url(#Dégradé_sans_nom_6-22);
      }

      .cls-57 {
        fill: url(#Dégradé_sans_nom_6-20);
      }

      .cls-58 {
        fill: url(#Dégradé_sans_nom_6-21);
      }

      .cls-59 {
        fill: url(#Dégradé_sans_nom_6-26);
      }

      .cls-60 {
        fill: url(#Dégradé_sans_nom_6-14);
      }

      .cls-61 {
        fill: url(#Dégradé_sans_nom_6-15);
      }

      .cls-62 {
        fill: url(#Dégradé_sans_nom_6-19);
      }

      .cls-63 {
        fill: url(#Dégradé_sans_nom_6-10);
      }

      .cls-64 {
        fill: url(#Dégradé_sans_nom_6-11);
      }

      .cls-65 {
        fill: url(#Dégradé_sans_nom_6-16);
      }

      .cls-66 {
        fill: url(#Dégradé_sans_nom_6-17);
      }

      .cls-67 {
        fill: url(#Dégradé_sans_nom_6-18);
      }

      .cls-68 {
        fill: url(#Dégradé_sans_nom_6-12);
      }

      .cls-69 {
        fill: url(#Dégradé_sans_nom_6-13);
      }
    </style>
    <linearGradient id="Dégradé_sans_nom_6" data-name="Dégradé sans nom 6" x1="152.09" y1="56.86" x2="152.09" y2="198.25" gradientUnits="userSpaceOnUse">
      <stop offset=".13" stop-color="#224026"/>
      <stop offset=".75" stop-color="#8a8c44"/>
      <stop offset=".97" stop-color="#fff"/>
    </linearGradient>
    <linearGradient id="Dégradé_sans_nom_6-2" data-name="Dégradé sans nom 6" x1="116.27" y1="56.86" x2="116.27" y2="198.25" xlink:href="#Dégradé_sans_nom_6"/>
    <linearGradient id="Dégradé_sans_nom_6-3" data-name="Dégradé sans nom 6" x1="152.02" x2="152.02" y2="198.25" xlink:href="#Dégradé_sans_nom_6"/>
    <linearGradient id="Dégradé_sans_nom_6-4" data-name="Dégradé sans nom 6" x1="113.59" y1="56.86" x2="113.59" y2="198.25" xlink:href="#Dégradé_sans_nom_6"/>
    <linearGradient id="Dégradé_sans_nom_6-5" data-name="Dégradé sans nom 6" x1="165.09" y1="56.86" x2="165.09" y2="198.25" xlink:href="#Dégradé_sans_nom_6"/>
    <linearGradient id="Dégradé_sans_nom_6-6" data-name="Dégradé sans nom 6" x1="153" x2="153" y2="198.25" xlink:href="#Dégradé_sans_nom_6"/>
    <linearGradient id="Dégradé_sans_nom_6-7" data-name="Dégradé sans nom 6" x1="153" x2="153" y2="198.25" xlink:href="#Dégradé_sans_nom_6"/>
    <linearGradient id="Dégradé_sans_nom_6-8" data-name="Dégradé sans nom 6" x1="170.6" y1="56.86" x2="170.6" y2="198.25" xlink:href="#Dégradé_sans_nom_6"/>
    <linearGradient id="Dégradé_sans_nom_6-9" data-name="Dégradé sans nom 6" x1="120.22" y1="56.86" x2="120.22" y2="198.25" xlink:href="#Dégradé_sans_nom_6"/>
    <linearGradient id="Dégradé_sans_nom_6-10" data-name="Dégradé sans nom 6" x1="146.51" x2="146.51" y2="198.25" xlink:href="#Dégradé_sans_nom_6"/>
    <linearGradient id="Dégradé_sans_nom_6-11" data-name="Dégradé sans nom 6" x1="152.03" x2="152.03" xlink:href="#Dégradé_sans_nom_6"/>
    <linearGradient id="Dégradé_sans_nom_6-12" data-name="Dégradé sans nom 6" x1="152.09" x2="152.09" y2="198.25" xlink:href="#Dégradé_sans_nom_6"/>
    <linearGradient id="Dégradé_sans_nom_6-13" data-name="Dégradé sans nom 6" x1="125.86" y1="56.86" x2="125.86" y2="198.25" xlink:href="#Dégradé_sans_nom_6"/>
    <linearGradient id="Dégradé_sans_nom_6-14" data-name="Dégradé sans nom 6" x1="153" x2="153" y2="198.25" xlink:href="#Dégradé_sans_nom_6"/>
    <linearGradient id="Dégradé_sans_nom_6-15" data-name="Dégradé sans nom 6" x1="179.25" y1="56.86" x2="179.25" y2="198.25" xlink:href="#Dégradé_sans_nom_6"/>
    <linearGradient id="Dégradé_sans_nom_6-16" data-name="Dégradé sans nom 6" x1="153" x2="153" y2="198.25" xlink:href="#Dégradé_sans_nom_6"/>
    <linearGradient id="Dégradé_sans_nom_6-17" data-name="Dégradé sans nom 6" x1="153" x2="153" y2="198.25" xlink:href="#Dégradé_sans_nom_6"/>
    <linearGradient id="Dégradé_sans_nom_6-18" data-name="Dégradé sans nom 6" x1="153" x2="153" y2="198.25" xlink:href="#Dégradé_sans_nom_6"/>
    <linearGradient id="Dégradé_sans_nom_6-19" data-name="Dégradé sans nom 6" x1="141.88" y1="56.86" x2="141.88" y2="198.25" xlink:href="#Dégradé_sans_nom_6"/>
    <linearGradient id="Dégradé_sans_nom_6-20" data-name="Dégradé sans nom 6" x1="153.01" x2="153.01" y2="198.25" xlink:href="#Dégradé_sans_nom_6"/>
    <linearGradient id="Dégradé_sans_nom_6-21" data-name="Dégradé sans nom 6" x1="153.01" x2="153.01" y2="198.25" xlink:href="#Dégradé_sans_nom_6"/>
    <linearGradient id="Dégradé_sans_nom_6-22" data-name="Dégradé sans nom 6" x1="163.3" y1="56.86" x2="163.3" y2="198.25" xlink:href="#Dégradé_sans_nom_6"/>
    <linearGradient id="Dégradé_sans_nom_6-23" data-name="Dégradé sans nom 6" x1="152.1" x2="152.1" y2="198.25" xlink:href="#Dégradé_sans_nom_6"/>
    <linearGradient id="Dégradé_sans_nom_6-24" data-name="Dégradé sans nom 6" x1="185.32" y1="56.86" x2="185.32" y2="198.25" xlink:href="#Dégradé_sans_nom_6"/>
    <linearGradient id="Dégradé_sans_nom_6-25" data-name="Dégradé sans nom 6" x1="133.01" y1="56.86" x2="133.01" y2="198.25" xlink:href="#Dégradé_sans_nom_6"/>
    <linearGradient id="Dégradé_sans_nom_6-26" data-name="Dégradé sans nom 6" x1="178.12" y1="56.86" x2="178.12" y2="198.25" xlink:href="#Dégradé_sans_nom_6"/>
    <linearGradient id="Dégradé_sans_nom_6-27" data-name="Dégradé sans nom 6" x1="152.62" x2="152.62" y2="198.25" xlink:href="#Dégradé_sans_nom_6"/>
    <linearGradient id="Dégradé_sans_nom_6-28" data-name="Dégradé sans nom 6" x1="172.01" y1="56.86" x2="172.01" y2="198.25" xlink:href="#Dégradé_sans_nom_6"/>
    <linearGradient id="Dégradé_sans_nom_6-29" data-name="Dégradé sans nom 6" x1="184.85" y1="56.86" x2="184.85" y2="198.25" xlink:href="#Dégradé_sans_nom_6"/>
    <linearGradient id="Dégradé_sans_nom_6-30" data-name="Dégradé sans nom 6" x1="188.82" y1="56.86" x2="188.82" y2="198.25" xlink:href="#Dégradé_sans_nom_6"/>
    <linearGradient id="Dégradé_sans_nom_6-31" data-name="Dégradé sans nom 6" x1="191.4" y1="56.86" x2="191.4" y2="198.25" xlink:href="#Dégradé_sans_nom_6"/>
    <linearGradient id="Dégradé_sans_nom_6-32" data-name="Dégradé sans nom 6" x1="187.82" y1="56.86" x2="187.82" y2="198.25" xlink:href="#Dégradé_sans_nom_6"/>
    <linearGradient id="Dégradé_sans_nom_6-33" data-name="Dégradé sans nom 6" x1="125.43" y1="56.86" x2="125.43" y2="198.25" xlink:href="#Dégradé_sans_nom_6"/>
    <linearGradient id="Dégradé_sans_nom_6-34" data-name="Dégradé sans nom 6" x1="122.2" y1="56.86" x2="122.2" y2="198.25" xlink:href="#Dégradé_sans_nom_6"/>
    <linearGradient id="Dégradé_sans_nom_6-35" data-name="Dégradé sans nom 6" x1="118.43" y1="56.86" x2="118.43" y2="198.25" xlink:href="#Dégradé_sans_nom_6"/>
    <linearGradient id="Dégradé_sans_nom_6-36" data-name="Dégradé sans nom 6" x1="136.3" y1="56.86" x2="136.3" y2="198.25" xlink:href="#Dégradé_sans_nom_6"/>
    <linearGradient id="Dégradé_sans_nom_6-37" data-name="Dégradé sans nom 6" x1="130.03" y1="56.86" x2="130.03" y2="198.25" xlink:href="#Dégradé_sans_nom_6"/>
    <linearGradient id="Dégradé_sans_nom_6-38" data-name="Dégradé sans nom 6" x1="143.46" y1="56.86" x2="143.46" y2="198.25" xlink:href="#Dégradé_sans_nom_6"/>
    <linearGradient id="Dégradé_sans_nom_6-39" data-name="Dégradé sans nom 6" x1="183.03" y1="56.86" x2="183.03" y2="198.25" xlink:href="#Dégradé_sans_nom_6"/>
    <linearGradient id="Dégradé_sans_nom_6-40" data-name="Dégradé sans nom 6" x1="179.74" y1="56.86" x2="179.74" y2="198.25" xlink:href="#Dégradé_sans_nom_6"/>
    <linearGradient id="Dégradé_sans_nom_6-41" data-name="Dégradé sans nom 6" x1="175.05" y1="56.86" x2="175.05" y2="198.25" xlink:href="#Dégradé_sans_nom_6"/>
    <linearGradient id="Dégradé_sans_nom_6-42" data-name="Dégradé sans nom 6" x1="168.8" y1="56.86" x2="168.8" y2="198.25" xlink:href="#Dégradé_sans_nom_6"/>
    <linearGradient id="Dégradé_sans_nom_6-43" data-name="Dégradé sans nom 6" x1="161.51" y1="56.86" x2="161.51" y2="198.25" xlink:href="#Dégradé_sans_nom_6"/>
    <linearGradient id="Dégradé_sans_nom_6-44" data-name="Dégradé sans nom 6" x1="153.01" x2="153.01" y2="198.25" xlink:href="#Dégradé_sans_nom_6"/>
    <linearGradient id="Dégradé_sans_nom_6-45" data-name="Dégradé sans nom 6" x1="152.62" x2="152.62" xlink:href="#Dégradé_sans_nom_6"/>
    <linearGradient id="Dégradé_sans_nom_6-46" data-name="Dégradé sans nom 6" x1="145.04" x2="145.04" y2="198.25" xlink:href="#Dégradé_sans_nom_6"/>
    <linearGradient id="Dégradé_sans_nom_6-47" data-name="Dégradé sans nom 6" x1="138.94" y1="56.86" x2="138.94" y2="198.25" xlink:href="#Dégradé_sans_nom_6"/>
    <linearGradient id="Dégradé_sans_nom_6-48" data-name="Dégradé sans nom 6" x1="134.6" y1="56.86" x2="134.6" y2="198.25" xlink:href="#Dégradé_sans_nom_6"/>
    <linearGradient id="Dégradé_sans_nom_6-49" data-name="Dégradé sans nom 6" x1="131.64" y1="56.86" x2="131.64" y2="198.25" xlink:href="#Dégradé_sans_nom_6"/>
    <linearGradient id="Dégradé_sans_nom_6-50" data-name="Dégradé sans nom 6" x1="152.49" x2="152.49" y2="198.25" xlink:href="#Dégradé_sans_nom_6"/>
    <linearGradient id="Dégradé_sans_nom_6-51" data-name="Dégradé sans nom 6" x1="166.22" y1="56.86" x2="166.22" y2="198.25" xlink:href="#Dégradé_sans_nom_6"/>
    <linearGradient id="Dégradé_sans_nom_6-52" data-name="Dégradé sans nom 6" x1="173.46" y1="56.86" x2="173.46" y2="198.25" xlink:href="#Dégradé_sans_nom_6"/>
    <linearGradient id="Dégradé_sans_nom_6-53" data-name="Dégradé sans nom 6" x1="160.15" y1="56.86" x2="160.15" y2="198.25" xlink:href="#Dégradé_sans_nom_6"/>
    <linearGradient id="Dégradé_sans_nom_6-54" data-name="Dégradé sans nom 6" x1="139.99" y1="56.86" x2="139.99" y2="198.25" xlink:href="#Dégradé_sans_nom_6"/>
    <linearGradient id="Dégradé_sans_nom_6-55" data-name="Dégradé sans nom 6" x1="142.59" y1="56.86" x2="142.59" y2="198.25" xlink:href="#Dégradé_sans_nom_6"/>
    <linearGradient id="Dégradé_sans_nom_6-56" data-name="Dégradé sans nom 6" x1="153" x2="153" y2="198.25" xlink:href="#Dégradé_sans_nom_6"/>
    <linearGradient id="Dégradé_sans_nom_6-57" data-name="Dégradé sans nom 6" x1="152.53" x2="152.53" y2="198.25" xlink:href="#Dégradé_sans_nom_6"/>
    <linearGradient id="Dégradé_sans_nom_6-58" data-name="Dégradé sans nom 6" x1="158.54" y1="56.86" x2="158.54" y2="198.25" xlink:href="#Dégradé_sans_nom_6"/>
    <linearGradient id="Dégradé_sans_nom_6-59" data-name="Dégradé sans nom 6" x1="162.52" y1="56.86" x2="162.52" y2="198.25" xlink:href="#Dégradé_sans_nom_6"/>
    <linearGradient id="Dégradé_sans_nom_6-60" data-name="Dégradé sans nom 6" x1="149.04" x2="149.04" y2="198.25" xlink:href="#Dégradé_sans_nom_6"/>
    <linearGradient id="Dégradé_sans_nom_6-61" data-name="Dégradé sans nom 6" x1="152.52" x2="152.52" y2="198.25" xlink:href="#Dégradé_sans_nom_6"/>
    <linearGradient id="Dégradé_sans_nom_6-62" data-name="Dégradé sans nom 6" x1="152.02" x2="152.02" y2="198.25" xlink:href="#Dégradé_sans_nom_6"/>
    <linearGradient id="Dégradé_sans_nom_6-63" data-name="Dégradé sans nom 6" x1="156.02" y1="56.86" x2="156.02" y2="198.25" xlink:href="#Dégradé_sans_nom_6"/>
    <linearGradient id="Dégradé_sans_nom_6-64" data-name="Dégradé sans nom 6" x1="152.09" x2="152.09" y2="198.25" xlink:href="#Dégradé_sans_nom_6"/>
    <linearGradient id="Dégradé_sans_nom_6-65" data-name="Dégradé sans nom 6" x1="152.1" x2="152.1" y2="198.25" xlink:href="#Dégradé_sans_nom_6"/>
    <linearGradient id="Dégradé_sans_nom_6-66" data-name="Dégradé sans nom 6" x1="152.1" x2="152.1" y2="198.25" xlink:href="#Dégradé_sans_nom_6"/>
    <linearGradient id="Dégradé_sans_nom_6-67" data-name="Dégradé sans nom 6" x1="152.18" x2="152.18" y2="198.25" xlink:href="#Dégradé_sans_nom_6"/>
  </defs>
  <g>
    <g>
      <path class="cls-1" d="M152,193.06v.03s.02.03.04.05c-.01-.02-.03-.05-.04-.08ZM152.08,182.64s.01.02.01.03h.01l-.02-.03ZM152.11,173.86s-.03.05-.04.07c.02-.02.03-.05.05-.07h-.01ZM152.18,156.91s-.01.01-.01.02c0-.01.01-.01.02-.01h-.01Z"/>
      <path class="cls-8" d="M121.83,158.45c-.12.33-.23.65-.34.97-.53,1.54-.99,2.99-1.39,4.34-.1.34-.2.68-.29,1-.28-.17-.57-.35-.86-.53-2.3-1.44-4.76-2.9-7.39-4.38-.28-.16-.57-.32-.86-.48l.27-1c.39-1.42.85-2.94,1.37-4.56.1-.31.21-.63.32-.96.28.16.56.32.83.48,2.68,1.55,5.17,3.08,7.51,4.58.28.18.56.36.83.54Z"/>
    </g>
    <path class="cls-7" d="M152.04,193.14s-.03-.04-.04-.05v-.03s.03.06.04.08Z"/>
    <path class="cls-9" d="M118.71,168.87h0c-.09.36-.17.69-.24,1.02-.39,1.59-.64,2.87-.81,3.77-.07.42-.13.76-.17,1.01-.32-.14-.63-.27-.94-.4-2.6-1.08-5.18-2-7.68-2.69l-.39-.11.03-.4c0-.09.13-2.09.8-5.58.06-.32.13-.67.2-1.02.31.14.61.28.91.42,2.62,1.19,5.08,2.37,7.39,3.53.3.15.6.3.9.45Z"/>
    <path class="cls-2" d="M168.63,184.77c-.3.17-.59.36-.87.54-1.33.83-2.6,1.65-3.79,2.44-.29.19-.57.38-.84.56-.13-.27-.27-.58-.43-.91-.21-.45-.44-.95-.69-1.48-.15-.31-.3-.63-.46-.97.25-.21.52-.43.79-.64,1.16-.93,2.44-1.91,3.86-2.93.28-.19.56-.39.84-.59.14.34.27.66.4.98.31.76.58,1.45.82,2.05.13.35.26.67.37.95Z"/>
    <path class="cls-4" d="M153.01,188.48h-.01v-.02s.01.02.01.02Z"/>
    <path class="cls-3" d="M153.01,188.48h-.01v-.02s.01.02.01.02Z"/>
    <path class="cls-6" d="M174.96,172.14c-.28.21-.56.42-.83.62-1.75,1.32-3.35,2.6-4.83,3.84-.28.22-.55.45-.81.68-.13-.34-.26-.68-.39-1.04-.43-1.11-.9-2.3-1.43-3.56h-.01c-.14-.33-.28-.67-.44-1.01.26-.22.52-.45.79-.68,1.42-1.22,2.96-2.5,4.65-3.82.27-.2.54-.41.81-.62.15.32.3.64.45.95.59,1.28,1.13,2.51,1.63,3.66.14.33.27.66.41.98Z"/>
    <path class="cls-5" d="M126.26,147.44h0c-.14.33-.29.64-.42.95-.85,1.91-1.61,3.72-2.27,5.4-.04.11-.09.22-.13.33-.08.21-.16.42-.24.63-.27-.19-.54-.38-.81-.57h0c-2.31-1.67-4.77-3.36-7.39-5.05-.26-.18-.53-.35-.81-.52.11-.32.24-.64.37-.96.65-1.67,1.36-3.41,2.16-5.2.13-.31.27-.61.42-.92.27.16.54.33.81.49,2.7,1.65,5.2,3.28,7.51,4.87.27.18.54.37.8.55Z"/>
    <path class="cls-63" d="M150.6,170.7c-.19.34-.38.69-.57,1.05-.66,1.22-1.36,2.58-2.08,4-.16.32-.32.64-.48.96-.23-.26-.47-.54-.71-.82-1.04-1.19-2.24-2.5-3.61-3.92-.24-.25-.48-.49-.73-.75.15-.31.32-.62.49-.93.81-1.53,1.67-3.06,2.6-4.56.19-.32.38-.64.59-.95.23.27.46.54.67.8,1.31,1.57,2.36,2.97,3.2,4.19.23.33.44.64.63.93Z"/>
    <path class="cls-64" d="M152.07,173.14l-.07.05v-.17s.04.08.07.12Z"/>
    <path class="cls-68" d="M152.12,173.86s-.03.05-.05.07c.01-.02.02-.05.04-.07h.01Z"/>
    <path class="cls-69" d="M132.04,136.09c-.17.3-.33.59-.5.88-.9,1.62-1.73,3.2-2.51,4.74-.16.3-.32.61-.47.91-.26-.21-.51-.4-.77-.6-2.26-1.73-4.69-3.49-7.31-5.26-.26-.18-.53-.36-.8-.54.15-.3.3-.59.46-.89.76-1.49,1.58-3,2.46-4.54.16-.29.32-.58.5-.87.28.17.55.35.82.52,2.67,1.73,5.11,3.42,7.33,5.06.27.19.53.39.79.59Z"/>
    <path class="cls-60" d="M153.01,158.94h-.01v-.03s.01.02.01.03Z"/>
    <path class="cls-61" d="M185.55,136.54c-.3.19-.59.39-.88.58-2.62,1.76-5.05,3.51-7.3,5.22-.28.22-.56.43-.83.64-.15-.3-.3-.6-.46-.91-.81-1.64-1.69-3.31-2.63-5.02-.16-.29-.32-.59-.49-.89.27-.21.54-.41.82-.61,2.21-1.64,4.64-3.33,7.31-5.06.29-.18.58-.37.87-.55.17.29.34.58.5.87.95,1.66,1.82,3.27,2.63,4.84.16.3.31.6.46.89Z"/>
    <path class="cls-65" d="M153,158.91s.01.02.01.03h-.01v-.03Z"/>
    <path class="cls-66" d="M153.01,141.2h-.01v-.03s.01.02.01.03Z"/>
    <path class="cls-67" d="M153.01,141.2h-.01v-.03s.01.02.01.03Z"/>
    <path class="cls-62" d="M148.5,112.37h0c-.22.27-.44.53-.65.79-1.35,1.63-2.64,3.25-3.87,4.86-.21.27-.41.53-.61.8-.24-.23-.48-.45-.73-.68-1.89-1.75-4.08-3.62-6.57-5.52-.26-.2-.53-.4-.8-.6.2-.26.41-.52.63-.79,1.42-1.77,2.92-3.57,4.5-5.37l.66-.75c.26.21.52.42.77.64,2.49,2.07,4.47,4.07,6.02,5.86.23.26.45.51.65.76Z"/>
    <path class="cls-57" d="M153.02,119.32h-.02v-.06s.02.05.02.06Z"/>
    <path class="cls-58" d="M153.02,119.32h-.02v-.06s.02.05.02.06Z"/>
    <path class="cls-56" d="M170.21,112.62c-.27.2-.54.4-.8.6-2.5,1.89-4.71,3.71-6.64,5.4-.25.22-.51.45-.75.66-.19-.27-.39-.53-.6-.8-1.38-1.83-2.83-3.67-4.36-5.52-.21-.26-.43-.53-.66-.79.21-.25.43-.51.66-.77,1.53-1.76,3.5-3.72,6.02-5.77.25-.22.51-.42.77-.63.23.25.45.51.66.76,1.81,2.04,3.5,4.07,5.09,6.08.2.26.41.52.61.78Z"/>
    <path class="cls-55" d="M152.11,182.67h-.01s-.01-.01-.01-.03l.02.03Z"/>
    <path class="cls-42" d="M185.55,136.54c-.15-.29-.3-.59-.46-.89"/>
    <path class="cls-43" d="M139.54,124.12c-.2.28-.39.56-.58.84-1.24,1.82-2.4,3.61-3.5,5.36-.18.29-.36.58-.53.86-.25-.21-.5-.43-.76-.65-2.11-1.81-4.4-3.68-6.89-5.6-.26-.19-.52-.39-.79-.6.17-.28.36-.56.54-.84,1.11-1.72,2.3-3.46,3.55-5.22.19-.27.39-.54.59-.82.28.19.55.39.81.58,2.56,1.87,4.82,3.68,6.81,5.43.25.22.5.44.75.66Z"/>
    <path class="cls-59" d="M178.39,124.11c-.17-.28-.35-.56-.54-.84"/>
    <path class="cls-41" d="M160.04,100.84c-.28.2-.55.4-.81.6-3.47,2.61-5.32,4.68-5.99,5.5-.01.01-.02.03-.03.04-.1.12-.16.21-.21.26-.04.05-.06.08-.06.08l-.04.04c-.1.11-.22.24-.32.35-.01.01-.02.02-.03.03-.13-.15-.26-.29-.4-.44-.05-.06-.1-.11-.15-.17-.04-.04-.08-.09-.12-.13-.66-.86-2.71-3.34-5.88-5.8-.26-.2-.52-.4-.8-.6l.7-.73c1.93-2,3.96-4.02,6.1-6.03.05-.05.11-.1.16-.15l.34-.32.35.32c.05.05.1.1.15.14,2.23,2.1,4.34,4.2,6.34,6.28.24.24.47.49.7.73Z"/>
    <path class="cls-45" d="M178.39,124.11c-.27.2-.54.41-.8.61-2.5,1.91-4.79,3.79-6.89,5.59-.26.23-.52.45-.77.67-.17-.29-.35-.57-.52-.86-1.01-1.63-2.08-3.27-3.2-4.93-.19-.29-.38-.57-.57-.85.24-.21.49-.43.75-.66,2-1.72,4.27-3.52,6.83-5.38.27-.2.54-.39.82-.59.2.28.39.55.58.82,1.14,1.6,2.22,3.18,3.23,4.74.19.28.37.56.54.84Z"/>
    <path class="cls-46" d="M190.93,148.71c-.31.2-.61.39-.91.6-2.61,1.69-5.07,3.38-7.38,5.04-.29.21-.58.42-.87.63-.12-.32-.25-.64-.37-.96-.66-1.7-1.4-3.48-2.2-5.32-.14-.31-.28-.63-.42-.94.29-.2.58-.4.87-.6,2.31-1.57,4.8-3.19,7.5-4.83.3-.18.6-.37.91-.55.14.31.28.62.41.92.66,1.5,1.26,2.94,1.8,4.3.1.25.2.5.29.75.13.32.25.64.37.96Z"/>
    <path class="cls-38" d="M194.42,159.65c-.32.18-.63.35-.94.53-2.63,1.49-5.1,2.97-7.41,4.41-.31.19-.61.38-.91.57-.09-.33-.19-.66-.29-1.01-.38-1.3-.82-2.69-1.32-4.18-.11-.32-.22-.65-.33-.99.29-.18.59-.38.89-.57,2.34-1.49,4.84-3.02,7.51-4.57.3-.18.61-.36.93-.54.11.33.22.65.32.97.49,1.55.92,3.01,1.28,4.38.1.34.19.67.27,1Z"/>
    <path class="cls-39" d="M196.52,171.47l-.39.11c-2.52.7-5.12,1.63-7.74,2.72-.03.01-.07.03-.1.04-.29.12-.57.23-.86.36-.03.01-.06.03-.09.04-.03-.18-.08-.52-.16-1.01-.14-.76-.35-1.87-.67-3.29-.08-.32-.15-.66-.23-1.01.3-.16.61-.31.92-.46,2.33-1.17,4.82-2.36,7.46-3.58.32-.14.64-.28.96-.43.07.36.13.7.19,1.02.58,3.22.68,5.05.68,5.09l.03.4Z"/>
    <path class="cls-36" d="M187.35,174.74s.06-.03.09-.04c.29-.13.57-.24.86-.36"/>
    <path class="cls-37" d="M129.85,163.99c-.15.32-.3.63-.44.94-.64,1.39-1.2,2.68-1.69,3.88-.13.33-.26.66-.38.97-.3-.21-.6-.42-.9-.63-1.43-1-2.94-2.02-4.54-3.06-.28-.18-.58-.37-.87-.56.12-.31.23-.63.36-.96.48-1.29,1.02-2.67,1.64-4.13.13-.31.26-.62.4-.94.29.18.57.37.85.56,1.66,1.12,3.22,2.21,4.7,3.29.29.21.59.43.87.64Z"/>
    <path class="cls-34" d="M126.19,172.88c-.12.34-.22.67-.33.99-.4,1.25-.7,2.33-.93,3.22-.09.36-.17.69-.23.99-.32-.17-.63-.33-.95-.48-1.68-.86-3.37-1.67-5.07-2.41h-.01c-.16-.08-.31-.15-.46-.21.03-.16.1-.49.22-.98.19-.8.51-2.03.99-3.62.09-.31.19-.64.31-.99.3.16.6.31.89.47,1.62.84,3.16,1.67,4.63,2.5.32.17.63.34.94.52Z"/>
    <path class="cls-35" d="M118.21,174.98c.15.06.3.13.46.2l-.48-.09s.01-.04.02-.11Z"/>
    <path class="cls-21" d="M141.49,144.03c-.2.29-.4.58-.59.87-1.02,1.51-1.97,2.98-2.87,4.4-.18.29-.36.58-.54.87-.25-.23-.51-.47-.77-.7-1.49-1.36-3.1-2.76-4.83-4.19-.25-.21-.51-.42-.78-.63h0c.17-.3.35-.58.53-.87.89-1.46,1.85-2.96,2.88-4.49.19-.28.38-.56.57-.84.26.21.52.42.78.63,1.8,1.47,3.43,2.89,4.88,4.25.25.23.5.46.74.7Z"/>
    <path class="cls-22" d="M135.08,154.14c-.18.31-.35.61-.52.9h-.01c-1.03,1.8-1.96,3.5-2.79,5.1-.16.31-.32.61-.46.9-.28-.22-.55-.45-.84-.67h0c-1.47-1.22-3.02-2.44-4.66-3.68-.27-.21-.54-.41-.82-.61.14-.31.29-.62.44-.93.78-1.62,1.66-3.35,2.64-5.17.16-.3.33-.6.5-.9.28.2.55.4.81.59,1.76,1.3,3.39,2.57,4.91,3.8.27.22.54.44.8.66h0Z"/>
    <path class="cls-23" d="M148.74,134.01c-.22.29-.44.57-.65.85-1.12,1.48-2.19,2.92-3.21,4.33-.2.28-.4.56-.59.83-.23-.24-.47-.48-.71-.73-1.38-1.4-2.93-2.91-4.65-4.52-.24-.22-.49-.45-.74-.67.19-.27.4-.54.6-.81,1.2-1.59,2.46-3.2,3.81-4.82.22-.26.44-.53.67-.8.24.24.47.48.69.72,1.66,1.73,3.03,3.34,4.16,4.8.22.28.43.55.62.82Z"/>
    <path class="cls-20" d="M187.02,174.88c-.3.13-.6.26-.91.4-1.6.71-3.2,1.48-4.79,2.28-.32.16-.63.32-.94.49-.07-.3-.15-.63-.24-1-.2-.78-.45-1.71-.79-2.77-.1-.31-.2-.64-.32-.99.3-.17.61-.35.93-.52,1.49-.82,3.05-1.66,4.7-2.51.27-.14.54-.28.82-.43.11.34.21.66.31.97.42,1.26.73,2.31.96,3.11.11.38.2.71.27.97Z"/>
    <path class="cls-28" d="M184.07,165.86c-.26.16-.51.32-.76.49-1.6,1.04-3.12,2.06-4.56,3.07-.3.2-.6.41-.89.62-.12-.32-.25-.64-.38-.97-.47-1.17-1.01-2.43-1.63-3.77-.14-.31-.29-.62-.44-.95.29-.21.58-.42.87-.62,1.47-1.06,3.02-2.14,4.66-3.24.25-.17.5-.34.76-.51.13.32.27.63.4.94.59,1.4,1.12,2.73,1.6,3.97.13.33.25.66.37.97Z"/>
    <path class="cls-29" d="M180.02,156.27l-.75.57c-1.62,1.22-3.15,2.43-4.61,3.61-.28.23-.56.45-.83.68-.15-.29-.31-.59-.47-.9-.82-1.59-1.74-3.27-2.75-5.04-.18-.3-.35-.6-.53-.91.27-.21.54-.43.81-.65,1.5-1.2,3.11-2.44,4.84-3.7.26-.19.52-.38.79-.57.16.3.32.6.48.9.97,1.79,1.82,3.49,2.59,5.08.15.32.29.62.43.93Z"/>
    <path class="cls-25" d="M174.01,144.98c-.26.2-.51.4-.77.61-1.7,1.39-3.28,2.75-4.75,4.06-.26.24-.51.47-.77.7-.18-.28-.36-.57-.54-.85-.93-1.48-1.93-3.02-3-4.6-.19-.29-.38-.58-.59-.87.24-.23.49-.46.74-.7,1.43-1.33,3.02-2.72,4.79-4.17.25-.21.51-.41.77-.63.19.29.38.57.57.85,1.08,1.61,2.09,3.19,3.03,4.73.17.29.35.58.52.87Z"/>
    <path class="cls-33" d="M166.63,133.96c-.25.23-.49.46-.73.68-1.68,1.58-3.18,3.08-4.52,4.47-.25.25-.49.5-.71.74-.19-.27-.39-.55-.6-.83-.96-1.33-1.97-2.7-3.03-4.1-.21-.28-.43-.57-.65-.86.21-.26.41-.52.63-.8,1.13-1.41,2.49-2.97,4.13-4.65.23-.24.46-.47.7-.71.22.26.44.52.66.78,1.23,1.5,2.41,3,3.52,4.47.2.27.41.54.6.81Z"/>
    <path class="cls-31" d="M153.02,119.32h-.02v-.06s.02.05.02.06Z"/>
    <path class="cls-24" d="M157.13,122.53c-1.2-1.29-2.44-2.58-3.74-3.88-.13-.12-.26-.25-.39-.38-.05-.05-.23-.23-.38-.38-.04-.04-.07-.07-.1-.1-.02-.02-.05-.05-.06-.06l-.88.88c-1.2,1.2-2.36,2.39-3.47,3.59-.23.24-.46.49-.68.73.23.25.46.5.67.74,2.09,2.34,3.35,4.04,3.81,4.69.03.05.06.09.09.12.07.11.12.17.12.18.13.16.3.34.42.5.13-.16.27-.34.4-.5,0,0,.02-.03.06-.08s.1-.13.18-.23c.5-.62,1.8-2.18,3.92-4.36.22-.23.46-.48.71-.72-.22-.25-.45-.5-.68-.74ZM153,119.32v-.06s.02.05.02.06h-.02Z"/>
    <path class="cls-27" d="M149.83,153.48c-.23.28-.45.56-.67.84-.93,1.21-1.81,2.43-2.64,3.67-.21.29-.4.58-.58.87-.22-.26-.45-.52-.68-.79-1.25-1.4-2.68-2.93-4.31-4.56-.24-.24-.48-.47-.72-.71.19-.28.38-.57.57-.85.94-1.39,1.94-2.77,2.99-4.13.2-.28.42-.56.64-.83.24.25.47.49.68.73,1.7,1.83,3.05,3.48,4.12,4.93.21.29.41.56.6.83Z"/>
    <path class="cls-30" d="M143.83,162.26c-.2.32-.38.64-.56.96-.94,1.65-1.8,3.29-2.58,4.87-.16.32-.31.63-.46.94-.24-.23-.49-.48-.75-.72-1.42-1.36-2.97-2.79-4.65-4.26-.25-.23-.51-.45-.77-.67.15-.3.31-.61.48-.91.85-1.64,1.78-3.33,2.79-5.03.18-.31.36-.61.55-.91.25.22.51.45.75.67,1.68,1.51,3.16,2.96,4.48,4.32.25.25.48.5.72.74Z"/>
    <path class="cls-26" d="M139.08,171.48c-.15.35-.3.69-.45,1.02-.54,1.26-1.03,2.46-1.47,3.58-.14.36-.28.71-.4,1.05-.26-.24-.53-.46-.81-.69-1.52-1.29-3.19-2.63-5.01-4.02-.27-.2-.55-.41-.83-.62.13-.31.27-.64.41-.97.51-1.18,1.08-2.43,1.7-3.74.14-.31.29-.63.45-.95.27.21.54.42.81.63,1.76,1.39,3.36,2.73,4.83,4.03.26.23.52.46.77.68Z"/>
    <path class="cls-32" d="M136.08,179c-.13.36-.25.7-.36,1.03-.35,1.03-.64,1.92-.86,2.63-.12.38-.21.71-.3.99-.29-.19-.59-.37-.89-.54-1.79-1.09-3.66-2.17-5.57-3.22-.29-.16-.59-.32-.89-.49.09-.28.2-.59.32-.94.29-.82.66-1.82,1.1-2.97.12-.31.24-.64.38-.97.3.17.59.35.87.52,1.93,1.16,3.71,2.29,5.34,3.39.29.19.58.38.86.57Z"/>
    <path class="cls-47" d="M153.02,148.9c.28-.41,1.55-2.18,3.87-4.88.21-.24.43-.5.66-.76-.21-.25-.44-.5-.67-.75-.92-1.04-1.89-2.05-2.89-3.02-.23-.23-.47-.47-.71-.68-.02-.01-.03-.03-.05-.04-.08-.09-.15-.16-.23-.23-.09-.09-.18-.17-.27-.26l-.13-.14c-.31.28-.45.41-.52.47l-.08.08s-.09.08-.13.12c-.26.24-.51.48-.76.73-1.04,1-2.04,2.03-3,3.1-.23.24-.45.49-.68.74.24.26.46.51.68.75,2.22,2.5,3.51,4.19,3.89,4.7.02.03.06.09.12.16.05.09.12.19.19.29.1.14.19.27.19.27h0s.01-.02.01-.02c.06-.07.32-.39.44-.54M153,141.2v-.03s.01.02.01.03h-.01Z"/>
    <path class="cls-49" d="M171,163.53c-.26.23-.52.45-.78.68-1.6,1.4-3.08,2.75-4.44,4.06-.26.24-.52.48-.77.72-.14-.31-.29-.63-.45-.95-.77-1.59-1.62-3.23-2.56-4.89-.17-.32-.36-.65-.55-.97l.73-.73c1.27-1.29,2.7-2.65,4.29-4.08.25-.22.51-.44.76-.67.19.31.37.61.54.92,1,1.7,1.92,3.38,2.76,5,.16.31.31.61.47.91Z"/>
    <path class="cls-52" d="M177.71,179.45l-.89.48c-1.84,1.02-3.64,2.06-5.37,3.1-.3.18-.6.36-.89.53-.07-.24-.16-.57-.29-.98-.17-.6-.42-1.37-.72-2.28-.1-.32-.22-.65-.34-1.01.28-.19.57-.38.86-.57,1.58-1.04,3.29-2.12,5.15-3.23.29-.17.58-.34.88-.51.13.34.25.65.36.96.37.99.68,1.85.93,2.56.12.36.23.68.32.95Z"/>
    <path class="cls-48" d="M164.9,152.99c-.25.24-.49.48-.73.71-1.56,1.54-2.93,2.97-4.14,4.29-.23.26-.46.51-.68.76-.18-.28-.37-.57-.56-.86-.85-1.28-1.76-2.56-2.72-3.81-.22-.29-.44-.58-.67-.86.2-.27.4-.55.61-.83,1.05-1.38,2.33-2.94,3.92-4.66.22-.24.45-.49.69-.74.22.27.43.55.64.83,1.09,1.43,2.12,2.88,3.08,4.33.2.28.38.56.56.84Z"/>
    <path class="cls-40" d="M143.61,184.64c-.17.34-.32.66-.47.98-.31.65-.59,1.24-.84,1.78-.16.32-.3.63-.43.9-.28-.18-.56-.37-.84-.55-1.2-.79-2.46-1.61-3.79-2.44-.28-.19-.57-.37-.86-.55.11-.28.23-.6.36-.95.27-.69.59-1.49.96-2.39.13-.32.27-.65.42-1,.28.21.56.4.83.6,1.41,1.03,2.7,2.02,3.86,2.97.28.21.54.43.8.65Z"/>
    <path class="cls-54" d="M146.4,178.85c-.17.34-.34.69-.51,1.03-.51,1.05-1.01,2.07-1.48,3.05-.17.35-.33.7-.49,1.03-.24-.26-.49-.52-.74-.79-1.08-1.12-2.29-2.32-3.64-3.56-.25-.24-.51-.48-.78-.72.15-.33.3-.67.45-1.01.48-1.08,1-2.21,1.56-3.39.16-.33.32-.66.49-1,.26.26.51.5.76.74,1.38,1.35,2.59,2.62,3.66,3.8.25.28.5.55.72.82Z"/>
    <path class="cls-50" d="M153.01,158.94h-.01v-.03s.01.02.01.03Z"/>
    <path class="cls-53" d="M156.82,161.7c-.22.28-.44.55-.65.81-1.72,2.16-2.7,3.63-3.05,4.17-.05.08-.12.2-.15.24-.02.04,0,0,0,0l-.06.08h0c-.12.14-.26.31-.41.53-.15-.22-.28-.47-.4-.61h0s-.04-.07-.1-.17c-.02-.04-.05-.08-.08-.13-.38-.59-1.35-2.07-3.02-4.21-.21-.26-.42-.54-.65-.82.2-.28.41-.56.61-.83.81-1.06,1.64-2.06,2.49-2.98.2-.22.42-.45.63-.66l.02-.02s.05-.06.09-.09c.01-.01.04-.04.08-.08,0-.01.01-.01.02-.01.12-.13.33-.32.35-.34.03.03.18.2.28.33.07.07.13.13.14.15,0,0,.02.01.02.02.01.01.01.02.02.02.24.24.47.48.7.73.86.94,1.7,1.96,2.52,3.04.2.27.41.55.6.83Z"/>
    <path class="cls-44" d="M162.64,171.34c-.25.25-.49.5-.73.75-1.37,1.42-2.58,2.72-3.62,3.9-.25.28-.48.55-.71.82-.16-.32-.33-.65-.49-.97-.72-1.42-1.42-2.79-2.08-4.02-.19-.36-.38-.71-.57-1.05.2-.3.41-.61.63-.93.85-1.21,1.9-2.61,3.22-4.16.22-.26.45-.52.68-.79.2.31.4.62.59.94.92,1.51,1.79,3.05,2.6,4.59.17.31.33.62.48.92Z"/>
    <path class="cls-51" d="M166.33,179.16c-.27.24-.53.48-.78.71-1.35,1.24-2.56,2.42-3.65,3.53-.25.26-.5.52-.74.77-.16-.33-.32-.67-.49-1.02-.46-.97-.96-1.99-1.47-3.04-.17-.35-.34-.69-.51-1.04.24-.26.48-.53.73-.8,1.08-1.16,2.3-2.41,3.69-3.74.25-.24.5-.48.77-.72.16.34.32.67.48,1,.55,1.16,1.06,2.28,1.53,3.34.15.34.3.68.44,1.01Z"/>
    <path class="cls-19" d="M151.64,185.84h0s-.5,1.19-.5,1.19l-1.14,2.72c-.2-.31-.43-.63-.68-.97-.6-.82-1.29-1.73-2.11-2.71-.24-.29-.49-.58-.76-.89.33-.94.73-1.98,1.24-3.12.15-.35.32-.72.5-1.09.24.3.47.6.69.88.86,1.11,1.55,2.1,2.11,2.95.24.38.46.72.65,1.04Z"/>
    <path class="cls-12" d="M155.79,178.92c-.24.31-.47.59-.68.86-1.15,1.45-1.82,2.41-2.05,2.75-.03.03-.04.06-.06.08-.01.01-.02.02-.02.03l-.02.03-.42.56-.06-.08-.37-.48-.02-.03-.04-.05s-.03-.04-.05-.06c-.01-.02-.03-.04-.04-.06-.26-.39-.93-1.34-2.03-2.76-.21-.27-.44-.55-.68-.86h0c.15-.32.32-.63.51-.96.55-1.04,1.19-2.14,1.9-3.31.08-.13.16-.26.25-.4.03-.05.06-.09.09-.14,0,0,.02-.03.03-.06.02-.02.03-.03.04-.05.02-.02.03-.05.05-.07.05-.08.12-.17.18-.27.09-.12.17-.24.22-.31.07.11.15.24.23.35.05.09.1.16.14.23.06.1.1.16.11.18.03.04.05.09.08.13.1.16.2.32.29.47.72,1.18,1.36,2.29,1.92,3.33.18.33.35.64.5.95Z"/>
    <path class="cls-17" d="M158.88,191.22c-2.64,1.84-4.56,3.28-5.47,3.98h0c-.17.13-.3.24-.4.31l-.14.1-.36.28-.3-.24s-.01-.01-.02-.01c-.02-.02-.05-.04-.1-.08-.02-.02-.05-.04-.08-.06-.64-.49-2.76-2.1-5.88-4.28-.31-.23-.63-.45-.96-.67.03-.32.08-.69.15-1.12.08-.47.19-1.01.34-1.61.09-.36.19-.74.32-1.15.29.26.56.51.82.77.23.2.45.41.67.62h0c.55.54,1.05,1.04,1.51,1.52,1.35,1.4,2.33,2.58,3.02,3.51.01,0,.02.03.04.05h.01c.21.29.39.54.55.77.03.04.05.08.08.12.1-.14.2-.29.32-.45.74-1.04,1.99-2.57,3.94-4.51,0,0,.01,0,.01-.01.42-.41.86-.83,1.34-1.28.12.42.21.81.28,1.17.09.42.15.8.2,1.13.07.47.1.85.11,1.14Z"/>
    <path class="cls-14" d="M158.63,185.39h0c-.29.31-.53.6-.78.88-.81.96-1.51,1.84-2.11,2.64l-.7.95-1.14-2.72h0s-.49-1.18-.49-1.18c.2-.31.41-.65.67-1.01.55-.84,1.25-1.82,2.12-2.91.22-.29.46-.58.7-.88.18.37.34.74.49,1.09.51,1.15.91,2.19,1.24,3.14Z"/>
    <path class="cls-16" d="M152.12,173.86s-.03.05-.05.07c.01-.02.02-.05.04-.07h.01Z"/>
    <path class="cls-18" d="M152.11,182.67h-.01s-.01-.01-.01-.03l.02.03Z"/>
    <path class="cls-15" d="M152.11,182.67h-.01s-.01-.01-.01-.03l.02.03Z"/>
    <path class="cls-13" d="M152.19,156.92s-.02,0-.02.01t.01-.02h.01Z"/>
  </g>
  <text class="cls-11" transform="translate(27.03 76.16)"><tspan x="0" y="0">Génerateur Biodiversité Climat</tspan></text>
  <g>
    <path class="cls-10" d="M131.7,40.16v9.33c0,.44-.09.82-.29,1.12-.19.31-.51.54-.96.69-1.13.37-2.43.68-3.9.92-.2.04-.41.07-.62.1-.83.12-1.65.22-2.46.28-.47-.39-.77-.98-.77-1.64,0-.71.35-1.34.89-1.72.48-.04.95-.1,1.42-.18.19-.03.36-.06.54-.1h.01c.77-.14,1.52-.31,2.25-.52v-6.98h-5.78c-.6,0-1.07-.13-1.41-.39-.34-.26-.51-.62-.51-1.09s.17-.82.51-1.06c.34-.23.81-.35,1.41-.35h7.75c.62,0,1.1.14,1.43.41.33.27.49.66.49,1.18Z"/>
    <path class="cls-10" d="M131.41,30.23c-.1.33-.3.62-.58.87-.28.24-.63.39-1.03.44s-.84-.05-1.32-.29c-.96-.56-1.96-.99-3.01-1.29h-.01c-.21-.07-.43-.13-.65-.18-.44-.1-.9-.19-1.37-.25-.45-.39-.74-.97-.74-1.61,0-.73.37-1.38.93-1.76.74.08,1.48.21,2.21.37l.75.18c1.44.39,2.77.95,3.99,1.69.42.24.69.53.81.85.12.32.13.64.02.98Z"/>
    <path class="cls-10" d="M119.74,50.96c0,.68-.32,1.29-.82,1.68-1.06-.06-2.05-.19-2.99-.37h-.01c-1.37-.27-2.62-.66-3.74-1.17-2.36-1.08-4.14-2.61-5.35-4.61-1.21-2-1.81-4.38-1.81-7.14,0-2.07.35-3.93,1.05-5.57.7-1.64,1.72-3.05,3.05-4.22,1.32-1.17,2.95-2.06,4.88-2.68.7-.22,1.42-.41,2.18-.55h.01l2.39-.31h.01c.68.36,1.15,1.08,1.15,1.9,0,.56-.22,1.07-.57,1.45h-.01c-.93.07-1.79.21-2.58.42-.69.19-1.33.42-1.91.71-1.6.79-2.8,1.94-3.61,3.43-.8,1.49-1.21,3.3-1.21,5.42,0,3.28.95,5.77,2.83,7.47,1.11,1,2.53,1.71,4.27,2.12.6.14,1.24.25,1.92.32h.01c.52.39.86,1.01.86,1.7Z"/>
    <path class="cls-10" d="M144.64,26.29c-.81,0-1.43.18-1.86.53-.43.36-.65.87-.65,1.54v21.94c0,.67.22,1.18.65,1.54.43.35,1.05.53,1.86.53h1.97v-26.08h-1.97Z"/>
    <path class="cls-10" d="M166.4,45.16c0,2.32-.93,4.1-2.78,5.34-1.85,1.25-4.45,1.87-7.79,1.87h-4.29c-.34-.38-.54-.87-.54-1.41,0-.61.26-1.16.68-1.55h3.62c2.23,0,3.89-.36,4.96-1.09,1.08-.73,1.62-1.83,1.62-3.31s-.54-2.58-1.62-3.29c-1.07-.72-2.73-1.08-4.96-1.08h-3.85c-.28-.36-.45-.82-.45-1.31,0-.66.3-1.26.78-1.65h2.8c2.15,0,3.77-.35,4.88-1.07,1.1-.72,1.65-1.76,1.65-3.15s-.55-2.42-1.65-3.14c-1.07-.7-2.62-1.05-4.66-1.06-.07-.01-.15-.01-.22-.01h-3.11c-.3-.37-.47-.83-.47-1.33,0-.65.29-1.24.76-1.63h3.54c2.17,0,4.03.27,5.57.81,1.54.54,2.71,1.32,3.54,2.33.82,1.01,1.23,2.23,1.23,3.67,0,1.57-.57,2.91-1.7,3.99-.86.83-1.96,1.44-3.28,1.85,1.58.34,2.87.95,3.86,1.83,1.25,1.13,1.88,2.59,1.88,4.39Z"/>
    <path class="cls-10" d="M187.48,26.09c-.24.03-.48.06-.71.09l2.82-.21c-.73,0-1.44.05-2.11.12Z"/>
    <path class="cls-10" d="M200.58,49.32c-.14.36-.43.66-.87.91-.38.25-.78.48-1.2.69-.88.45-1.85.81-2.91,1.09-.25-.12-.47-.29-.65-.5-.34-.38-.54-.87-.54-1.42,0-.61.26-1.16.68-1.55.01-.01.02-.02.04-.03.46-.16.91-.34,1.35-.55.34-.15.67-.32.99-.51.54-.27,1.02-.39,1.45-.37.44.03.8.15,1.1.37.3.22.5.5.6.83.11.34.09.68-.04,1.04Z"/>
    <path class="cls-10" d="M200.53,30.32c-.1.35-.3.64-.6.87-.3.23-.68.36-1.14.39-.46.02-.96-.11-1.5-.41-.39-.24-.8-.46-1.22-.65-.63-.29-1.29-.52-1.99-.7-.33-.38-.53-.86-.53-1.4,0-.61.26-1.16.68-1.55.17-.17.37-.3.59-.4.13.02.26.05.39.08.81.19,1.56.43,2.26.72h.01c.71.28,1.36.61,1.96.98.5.27.84.6,1,.98.17.38.2.75.09,1.09Z"/>
    <path class="cls-10" d="M189.71,49.41c.42.39.68.94.68,1.55,0,.54-.2,1.03-.54,1.41-.1.12-.23.23-.35.33h-.01c-.64-.01-1.25-.05-1.85-.11-.3-.03-.59-.07-.87-.11-1.8-.25-3.41-.72-4.84-1.4-2.27-1.09-4-2.64-5.21-4.65-1.21-2.01-1.82-4.38-1.82-7.12,0-2.05.35-3.89,1.03-5.53.69-1.64,1.68-3.05,2.98-4.22,1.3-1.17,2.9-2.06,4.79-2.68.93-.3,1.91-.53,2.96-.68h.01s.1-.02.1-.02l2.82-.21s.04.02.06.04c.02,0,.04.03.06.05.42.39.68.94.68,1.54,0,.55-.2,1.04-.54,1.42-.12.14-.27.27-.43.37l-1.94.2h-.01c-1.09.18-2.07.5-2.94.93-1.55.78-2.73,1.91-3.54,3.39-.8,1.48-1.21,3.28-1.21,5.4s.41,3.93,1.21,5.42c.81,1.49,1.99,2.63,3.54,3.41.83.42,1.76.72,2.8.9h.01l2.22.25h.02c.05.04.09.08.13.12Z"/>
  </g>
  <path class="cls-10" d="M194.08,29.82l1.99.7c-.63-.29-1.29-.52-1.99-.7Z"/>
  <path class="cls-10" d="M118.87,49.26c-.68-.07-1.32-.18-1.92-.32l1.92.32Z"/>
  <path class="cls-10" d="M123.59,49.24c.48-.04.95-.1,1.42-.18.19-.03.36-.06.54-.1"/>
</svg>